<?xml version="1.0" encoding="UTF-8"?>
<svg width="128px" height="128px" viewBox="0 0 128 128" version="1.1" xmlns="http://www.w3.org/2000/svg" xmlns:xlink="http://www.w3.org/1999/xlink">
    <!-- Generator: Sketch 59.1 (86144) - https://sketch.com -->
    <title>AWESOME ICON</title>
    <desc>Created with Sketch.</desc>
    <defs>
        <rect id="path-1" x="0" y="0" width="128" height="128" rx="27.7333333"></rect>
        <linearGradient x1="99.9366755%" y1="49.9366755%" x2="0.0633245319%" y2="49.9366755%" id="linearGradient-3">
            <stop stop-color="#13D0FF" offset="0%"></stop>
            <stop stop-color="#3B7BFF" offset="99.9366554%"></stop>
        </linearGradient>
        <path d="M89.5519554,1.77635684e-15 C89.0911912,1.77635684e-15 88.7214422,0.127358006 88.4423922,0.382074017 L88.4423922,0.382074017 C88.1627103,0.636790028 88.0233433,0.969880196 88.0233433,1.38039645 L88.0233433,1.38039645 C88.0233433,1.79122872 88.1627103,2.12431889 88.4423922,2.37871888 L88.4423922,2.37871888 C88.7214422,2.63375091 89.0911912,2.76079289 89.5519554,2.76079289 L89.5519554,2.76079289 C90.0114555,2.76079289 90.3812046,2.63375091 90.6608865,2.37871888 L90.6608865,2.37871888 C90.9399365,2.12431889 91.0799355,1.79122872 91.0799355,1.38039645 L91.0799355,1.38039645 C91.0799355,0.969880196 90.9399365,0.636790028 90.6608865,0.382074017 L90.6608865,0.382074017 C90.3812046,0.127358006 90.0114555,1.77635684e-15 89.5519554,1.77635684e-15 Z M57.8818433,1.77635684e-15 C57.4213952,1.77635684e-15 57.0516461,0.127358006 56.7722802,0.382074017 L56.7722802,0.382074017 C56.4929142,0.636790028 56.3535473,0.969880196 56.3535473,1.38039645 L56.3535473,1.38039645 C56.3535473,1.79122872 56.4929142,2.12431889 56.7722802,2.37871888 L56.7722802,2.37871888 C57.0516461,2.63375091 57.4213952,2.76079289 57.8818433,2.76079289 L57.8818433,2.76079289 C58.3419755,2.76079289 58.7117245,2.63375091 58.9910905,2.37871888 L58.9910905,2.37871888 C59.2704564,2.12431889 59.4101394,1.79122872 59.4101394,1.38039645 L59.4101394,1.38039645 C59.4101394,0.969880196 59.2704564,0.636790028 58.9910905,0.382074017 L58.9910905,0.382074017 C58.7117245,0.127358006 58.3419755,1.77635684e-15 57.8818433,1.77635684e-15 Z M77.8343869,1.82409531 L71.4007534,18.8818514 L73.8164472,18.8818514 L75.2707935,14.8639117 L82.9122738,14.8639117 L84.36662,18.8818514 L86.7823138,18.8818514 L80.3733303,1.82409531 L77.8343869,1.82409531 Z M79.0915336,4.33838883 L82.2713754,13.1137662 L75.9116918,13.1137662 L79.0915336,4.33838883 Z M63.5712383,1.97199492 L63.5712383,5.34935226 L61.5502595,5.34935226 L61.5502595,7.29638122 L63.5712383,7.29638122 L63.5712383,14.5930785 C63.5712383,16.1374918 63.9122291,17.2388383 64.5942107,17.8958539 L64.5942107,17.8958539 C65.2761923,18.5531856 66.3073813,18.8818514 67.6880937,18.8818514 L67.6880937,18.8818514 L69.3639734,18.8818514 L69.3639734,16.9098565 L67.983577,16.9098565 C67.194779,16.9098565 66.6401554,16.7496319 66.3200223,16.4291827 L66.3200223,16.4291827 C65.9995731,16.1090496 65.8390325,15.5133428 65.8390325,14.6420623 L65.8390325,14.6420623 L65.8390325,7.29638122 L69.3393235,7.29638122 L69.3393235,5.34935226 L65.8390325,5.34935226 L65.8390325,1.97199492 L63.5712383,1.97199492 Z M98.4502665,5.90397583 C97.5957354,6.42130847 96.9469364,7.1484816 96.5029215,8.08517919 L96.5029215,8.08517919 L96.5029215,5.34935226 L94.2597773,5.34935226 L94.2597773,18.8818514 L96.5029215,18.8818514 L96.5029215,11.7580197 C96.5029215,10.2629063 96.9055371,9.19063404 97.7110844,8.54120302 L97.7110844,8.54120302 C98.5159997,7.89240405 99.551297,7.56784655 100.816976,7.56784655 L100.816976,7.56784655 L101.506859,7.56784655 L101.506859,5.12750283 C100.323662,5.12750283 99.3044816,5.38601114 98.4502665,5.90397583 L98.4502665,5.90397583 Z M45.2936264,6.01490054 C44.4144453,6.606183 43.8023052,7.45281351 43.4575221,8.55352799 L43.4575221,8.55352799 L43.4575221,5.34935226 L41.2140619,5.34935226 L41.2140619,18.8818514 L43.4575221,18.8818514 L43.4575221,11.7087199 C43.4575221,10.1804238 43.8272712,9.01808448 44.5667693,8.22075384 L44.5667693,8.22075384 C45.3059513,7.42373923 46.2919488,7.02523192 47.5247617,7.02523192 L47.5247617,7.02523192 C48.7076426,7.02523192 49.6443402,7.38676432 50.3348544,8.10982913 L50.3348544,8.10982913 C51.0247366,8.83320996 51.3701518,9.86850729 51.3701518,11.2157211 L51.3701518,11.2157211 L51.3701518,18.8818514 L53.61298,18.8818514 L53.61298,11.0185216 C53.61298,9.11225988 53.1285139,7.6538053 52.1586337,6.6431579 L52.1586337,6.6431579 C51.1887535,5.6325105 49.9154895,5.12750283 48.3378935,5.12750283 L48.3378935,5.12750283 C47.1875632,5.12750283 46.1724914,5.42330207 45.2936264,6.01490054 L45.2936264,6.01490054 Z M13.6314149,6.02690949 C12.7440172,6.62672461 12.1113355,7.47714742 11.7333698,8.57817792 L11.7333698,8.57817792 C11.3718374,7.44428084 10.767914,6.58595741 9.92159946,6.00225955 L9.92159946,6.00225955 C9.07496895,5.41919374 8.07664652,5.12750283 6.92663217,5.12750283 L6.92663217,5.12750283 C5.82560167,5.12750283 4.85161315,5.41066107 4.00593072,5.97760962 L4.00593072,5.97760962 C3.15898418,6.54455816 2.57181005,7.36243041 2.24314423,8.4302783 L2.24314423,8.4302783 L2.24314423,5.34935226 L4.97379915e-14,5.34935226 L4.97379915e-14,18.8818514 L2.24314423,18.8818514 L2.24314423,11.7087199 C2.24314423,10.1971731 2.60056831,9.05095106 3.31541647,8.27005372 L3.31541647,8.27005372 C4.03026463,7.48978842 4.98718781,7.09918173 6.18713408,7.09918173 L6.18713408,7.09918173 C7.30459787,7.09918173 8.19199558,7.45281351 8.84932722,8.159129 L8.84932722,8.159129 C9.50665887,8.86607654 9.83532469,9.88462456 9.83532469,11.2157211 L9.83532469,11.2157211 L9.83532469,18.8818514 L12.0784689,18.8818514 L12.0784689,11.7087199 C12.0784689,10.1971731 12.435893,9.05095106 13.1507412,8.27005372 L13.1507412,8.27005372 C13.8655893,7.48978842 14.8146119,7.09918173 15.9978088,7.09918173 L15.9978088,7.09918173 C17.1317059,7.09918173 18.0228959,7.45281351 18.6723269,8.159129 L18.6723269,8.159129 C19.3214419,8.86607654 19.6459994,9.88462456 19.6459994,11.2157211 L19.6459994,11.2157211 L19.6459994,18.8818514 L21.8891437,18.8818514 L21.8891437,11.0185216 C21.8891437,9.11225988 21.4084699,7.6538053 20.4471224,6.6431579 L20.4471224,6.6431579 C19.4857748,5.6325105 18.2163031,5.12750283 16.6387072,5.12750283 L16.6387072,5.12750283 C15.5209274,5.12750283 14.5188126,5.42709437 13.6314149,6.02690949 L13.6314149,6.02690949 Z M28.0143369,6.01490054 C26.9872562,6.57331642 26.1779166,7.3788637 25.5863181,8.4302783 L25.5863181,8.4302783 C24.9947196,9.48200893 24.6989204,10.7145058 24.6989204,12.1277688 L24.6989204,12.1277688 C24.6989204,13.5410318 24.9947196,14.7694203 25.5863181,15.8132503 L25.5863181,15.8132503 C26.1779166,16.8567643 26.9872562,17.6578872 28.0143369,18.2163031 L28.0143369,18.2163031 C29.0411015,18.775351 30.2043889,19.054401 31.5026189,19.054401 L31.5026189,19.054401 C32.8002169,19.054401 33.9631882,18.775351 34.9902689,18.2163031 L34.9902689,18.2163031 C36.0173496,17.6578872 36.8225809,16.8567643 37.4059627,15.8132503 L37.4059627,15.8132503 C37.9890285,14.7694203 38.2810354,13.5410318 38.2810354,12.1277688 L38.2810354,12.1277688 C38.2810354,10.7145058 37.9890285,9.48200893 37.4059627,8.4302783 L37.4059627,8.4302783 C36.8225809,7.3788637 36.0173496,6.57331642 34.9902689,6.01490054 L34.9902689,6.01490054 C33.9631882,5.45616865 32.8002169,5.17648668 31.5026189,5.17648668 L31.5026189,5.17648668 C30.2043889,5.17648668 29.0411015,5.45616865 28.0143369,6.01490054 L28.0143369,6.01490054 Z M29.2714836,16.5401074 C28.5895021,16.1788911 28.0393028,15.6242675 27.6199379,14.8762367 L27.6199379,14.8762367 C27.200889,14.128838 26.9913645,13.212366 26.9913645,12.1277688 L26.9913645,12.1277688 C26.9913645,11.0270543 27.200889,10.1023657 27.6199379,9.35465092 L27.6199379,9.35465092 C28.0393028,8.60693618 28.5895021,8.05231261 29.2714836,7.69078021 L29.2714836,7.69078021 C29.9531492,7.32956383 30.6970716,7.1484816 31.5026189,7.1484816 L31.5026189,7.1484816 C32.3072181,7.1484816 33.0511406,7.32956383 33.7331222,7.69078021 L33.7331222,7.69078021 C34.4147877,8.05231261 34.965619,8.60693618 35.3846679,9.35465092 L35.3846679,9.35465092 C35.8037168,10.1023657 36.0132413,11.0270543 36.0132413,12.1277688 L36.0132413,12.1277688 C36.0132413,13.212366 35.8037168,14.128838 35.3846679,14.8762367 L35.3846679,14.8762367 C34.965619,15.6242675 34.4147877,16.1788911 33.7331222,16.5401074 L33.7331222,16.5401074 C33.0511406,16.9019559 32.3072181,17.082406 31.5026189,17.082406 L31.5026189,17.082406 C30.6970716,17.082406 29.9531492,16.9019559 29.2714836,16.5401074 L29.2714836,16.5401074 Z M88.4177423,18.8818514 L90.6605705,18.8818514 L90.6605705,5.34935226 L88.4177423,5.34935226 L88.4177423,18.8818514 Z M56.7476302,18.8818514 L58.9910905,18.8818514 L58.9910905,5.34935226 L56.7476302,5.34935226 L56.7476302,18.8818514 Z" id="path-4"></path>
    </defs>
    <g id="Icon-Template" stroke="none" stroke-width="1" fill="none" fill-rule="evenodd">
        <g id="preview-black" transform="translate(-123.000000, -709.000000)">
            <g id="AWESOME-ICON" transform="translate(123.000000, 709.000000)">
                <mask id="mask-2" fill="white">
                    <use xlink:href="#path-1"></use>
                </mask>
                <g id="Mask"></g>
                <g id="app-icon" mask="url(#mask-2)">
                    <rect id="bg" fill="#FFFFFF" x="0" y="0" width="128" height="128"></rect>
                    <g id="Clip-3" stroke-width="1" transform="translate(12.800000, 53.333333)">
                        <mask id="mask-5" fill="white">
                            <use xlink:href="#path-4"></use>
                        </mask>
                        <use id="Clip-2" fill="url(#linearGradient-3)" xlink:href="#path-4"></use>
                    </g>
                </g>
            </g>
        </g>
    </g>
</svg>